<svg width="20" height="18" viewBox="0 0 20 18" fill="none" xmlns="http://www.w3.org/2000/svg">
<path fill-rule="evenodd" clip-rule="evenodd" d="M4.44445 0C5.42986 0.000120702 6.38732 0.301709 7.16643 0.857395C7.94555 1.41308 8.50218 2.19138 8.7489 3.07006H17.7778V5.11676H8.7489C8.47587 6.07921 7.83183 6.91724 6.93704 7.47436C6.04225 8.03148 4.95789 8.26961 3.88643 8.14428C2.81496 8.01895 1.82965 7.53874 1.11448 6.7933C0.3993 6.04786 0.00315112 5.08817 0 4.09341C0 3.00777 0.468253 1.96659 1.30175 1.19893C2.13525 0.431268 3.26571 0 4.44445 0ZM4.44445 6.14011C5.03382 6.14011 5.59905 5.92448 6.0158 5.54065C6.43255 5.15682 6.66668 4.63623 6.66668 4.09341C6.66668 3.55059 6.43255 3.03 6.0158 2.64617C5.59905 2.26234 5.03382 2.0467 4.44445 2.0467C3.85508 2.0467 3.28985 2.26234 2.8731 2.64617C2.45635 3.03 2.22223 3.55059 2.22223 4.09341C2.22223 4.63623 2.45635 5.15682 2.8731 5.54065C3.28985 5.92448 3.85508 6.14011 4.44445 6.14011Z" fill="#4A4A4A"/>
<path fill-rule="evenodd" clip-rule="evenodd" d="M15.5555 17.397C14.5701 17.3968 13.6126 17.0952 12.8335 16.5396C12.0544 15.9839 11.4978 15.2056 11.2511 14.3269H2.22217V12.2802H11.2511C11.5241 11.3177 12.1681 10.4797 13.0629 9.9226C13.9577 9.36548 15.0421 9.12735 16.1135 9.25268C17.185 9.378 18.1703 9.85822 18.8855 10.6037C19.6006 11.3491 19.9968 12.3088 19.9999 13.3035C19.9999 14.3892 19.5317 15.4304 18.6982 16.198C17.8647 16.9657 16.7342 17.397 15.5555 17.397ZM15.5555 15.3503C16.1449 15.3503 16.7101 15.1346 17.1268 14.7508C17.5436 14.367 17.7777 13.8464 17.7777 13.3035C17.7777 12.7607 17.5436 12.2401 17.1268 11.8563C16.7101 11.4725 16.1449 11.2568 15.5555 11.2568C14.9661 11.2568 14.4009 11.4725 13.9841 11.8563C13.5674 12.2401 13.3333 12.7607 13.3333 13.3035C13.3333 13.8464 13.5674 14.367 13.9841 14.7508C14.4009 15.1346 14.9661 15.3503 15.5555 15.3503Z" fill="#4A4A4A"/>
</svg>
