<svg width="128" height="39" viewBox="0 0 128 39" fill="none" xmlns="http://www.w3.org/2000/svg">
<rect width="39" height="38.44" fill="url(#paint0_linear)"/>
<path d="M12.99 29.61C12.85 30.05 12.38 30.27 11.58 30.27C10.8 30.27 10.02 30 9.24001 29.46C9.86001 27.78 11.09 24.99 12.93 21.09C14.79 17.17 16.03 14.25 16.65 12.33C16.71 12.09 16.74 11.89 16.74 11.73C16.74 11.55 16.67 11.31 16.53 11.01C16.39 10.71 16.24 10.47 16.08 10.29L15.87 10.02L15.99 9.42C17.77 8.94 19.88 8.7 22.32 8.7L24.63 8.82C24.83 9 25.03 9.47 25.23 10.23C25.43 10.99 25.56 12.13 25.62 13.65C25.68 15.17 25.72 18.02 25.74 22.2C25.76 25.42 26.16 27.03 26.94 27.03C27.14 27.03 27.57 26.93 28.23 26.73L28.53 26.64L29.16 28.35C28.34 28.97 27.38 29.46 26.28 29.82C25.18 30.18 24.19 30.36 23.31 30.36C22.03 30.36 21.15 29.97 20.67 29.19C20.21 28.39 19.98 27.37 19.98 26.13C19.98 24.87 19.99 24 20.01 23.52C19.63 23.44 18.89 23.4 17.79 23.4C16.69 23.4 15.74 23.51 14.94 23.73C14.2 25.71 13.55 27.67 12.99 29.61ZM20.13 21C20.23 19.26 20.28 17.51 20.28 15.75C20.28 13.99 20.18 12.71 19.98 11.91C19.78 11.91 19.64 11.93 19.56 11.97C19.12 13.31 17.94 16.32 16.02 21H20.13Z" fill="white"/>
<path d="M40.4932 13.5918H43.3076V15.2676C43.6729 14.6947 44.167 14.2292 44.79 13.8711C45.4131 13.513 46.1042 13.334 46.8633 13.334C48.1882 13.334 49.3125 13.8532 50.2363 14.8916C51.1602 15.93 51.6221 17.3766 51.6221 19.2314C51.6221 21.1364 51.1566 22.6188 50.2256 23.6787C49.2946 24.7314 48.1667 25.2578 46.8418 25.2578C46.2116 25.2578 45.6387 25.1325 45.123 24.8818C44.6146 24.6312 44.0775 24.2015 43.5117 23.5928V29.3398H40.4932V13.5918ZM43.4795 19.1025C43.4795 20.3844 43.7337 21.3333 44.2422 21.9492C44.7507 22.5579 45.3701 22.8623 46.1006 22.8623C46.8024 22.8623 47.3861 22.583 47.8516 22.0244C48.3171 21.4587 48.5498 20.5348 48.5498 19.2529C48.5498 18.057 48.3099 17.1689 47.8301 16.5889C47.3503 16.0088 46.7559 15.7187 46.0469 15.7187C45.3092 15.7187 44.6969 16.0052 44.21 16.5781C43.723 17.1439 43.4795 17.9854 43.4795 19.1025ZM57.0361 9.25195V15.042C58.0101 13.9033 59.1738 13.334 60.5273 13.334C61.222 13.334 61.8486 13.4629 62.4072 13.7207C62.9658 13.9785 63.3848 14.3079 63.6641 14.709C63.9505 15.11 64.1439 15.554 64.2441 16.041C64.3516 16.528 64.4053 17.2835 64.4053 18.3076V25H61.3867V18.9736C61.3867 17.7777 61.3294 17.0186 61.2148 16.6963C61.1003 16.374 60.8962 16.1198 60.6025 15.9336C60.3161 15.7402 59.9544 15.6436 59.5176 15.6436C59.0163 15.6436 58.5687 15.7653 58.1748 16.0088C57.7809 16.2523 57.4909 16.6211 57.3047 17.1152C57.1256 17.6022 57.0361 18.3255 57.0361 19.2852V25H54.0176V9.25195H57.0361ZM70.3672 25H67.3486V13.5918H70.1523V15.2139C70.6322 14.4476 71.0618 13.9427 71.4414 13.6992C71.8281 13.4557 72.265 13.334 72.752 13.334C73.4395 13.334 74.1019 13.5238 74.7393 13.9033L73.8047 16.5352C73.2962 16.2057 72.8236 16.041 72.3867 16.041C71.9642 16.041 71.6061 16.1592 71.3125 16.3955C71.0189 16.6247 70.7861 17.0436 70.6143 17.6523C70.4495 18.2611 70.3672 19.5358 70.3672 21.4766V25ZM75.3516 19.1348C75.3516 18.1322 75.5986 17.1618 76.0928 16.2236C76.5869 15.2855 77.2852 14.5693 78.1875 14.0752C79.097 13.5811 80.1103 13.334 81.2275 13.334C82.9534 13.334 84.3678 13.8962 85.4707 15.0205C86.5736 16.1377 87.125 17.5521 87.125 19.2637C87.125 20.9896 86.5664 22.4219 85.4492 23.5605C84.3392 24.6921 82.9391 25.2578 81.249 25.2578C80.2034 25.2578 79.2044 25.0215 78.252 24.5488C77.3066 24.0762 76.5869 23.3851 76.0928 22.4756C75.5986 21.5589 75.3516 20.4453 75.3516 19.1348ZM78.4453 19.2959C78.4453 20.4274 78.7139 21.2939 79.251 21.8955C79.7881 22.4971 80.4505 22.7979 81.2383 22.7979C82.026 22.7979 82.6849 22.4971 83.2148 21.8955C83.752 21.2939 84.0205 20.4202 84.0205 19.2744C84.0205 18.1572 83.752 17.2979 83.2148 16.6963C82.6849 16.0947 82.026 15.7939 81.2383 15.7939C80.4505 15.7939 79.7881 16.0947 79.251 16.6963C78.7139 17.2979 78.4453 18.1644 78.4453 19.2959ZM99.9619 25H97.1582V23.3242C96.6927 23.9759 96.1413 24.4629 95.5039 24.7852C94.8737 25.1003 94.2363 25.2578 93.5918 25.2578C92.2812 25.2578 91.1569 24.7314 90.2187 23.6787C89.2878 22.6188 88.8223 21.1436 88.8223 19.2529C88.8223 17.3193 89.277 15.8512 90.1865 14.8486C91.096 13.8389 92.2454 13.334 93.6348 13.334C94.9095 13.334 96.0124 13.8639 96.9434 14.9238V9.25195H99.9619V25ZM91.9053 19.0488C91.9053 20.2663 92.0736 21.1471 92.4102 21.6914C92.8971 22.4792 93.5775 22.873 94.4512 22.873C95.1458 22.873 95.7367 22.5794 96.2236 21.9922C96.7106 21.3978 96.9541 20.5133 96.9541 19.3389C96.9541 18.0283 96.7178 17.0866 96.2451 16.5137C95.7725 15.9336 95.1673 15.6436 94.4297 15.6436C93.7135 15.6436 93.112 15.93 92.625 16.5029C92.1452 17.0687 91.9053 17.9173 91.9053 19.0488ZM102.948 12.0449V9.25195H105.967V12.0449H102.948ZM102.948 25V13.5918H105.967V25H102.948ZM114.303 13.5918V15.998H112.24V20.5957C112.24 21.5267 112.258 22.071 112.294 22.2285C112.337 22.3789 112.426 22.5042 112.562 22.6045C112.706 22.7048 112.878 22.7549 113.078 22.7549C113.357 22.7549 113.762 22.6582 114.292 22.4648L114.55 24.8066C113.848 25.1074 113.053 25.2578 112.165 25.2578C111.621 25.2578 111.13 25.1683 110.693 24.9893C110.257 24.8031 109.934 24.5667 109.727 24.2803C109.526 23.9867 109.386 23.5928 109.308 23.0986C109.243 22.7477 109.211 22.0387 109.211 20.9717V15.998H107.825V13.5918H109.211V11.3252L112.24 9.56348V13.5918H114.303ZM123.004 21.3691L126.012 21.874C125.625 22.9769 125.013 23.8184 124.175 24.3984C123.344 24.9714 122.302 25.2578 121.049 25.2578C119.065 25.2578 117.597 24.6097 116.645 23.3135C115.893 22.2751 115.517 20.9645 115.517 19.3818C115.517 17.4912 116.011 16.0124 116.999 14.9453C117.987 13.8711 119.237 13.334 120.748 13.334C122.445 13.334 123.785 13.8962 124.766 15.0205C125.747 16.1377 126.216 17.8529 126.173 20.166H118.61C118.632 21.0612 118.875 21.7594 119.341 22.2607C119.806 22.7549 120.386 23.002 121.081 23.002C121.554 23.002 121.951 22.873 122.273 22.6152C122.596 22.3574 122.839 21.9421 123.004 21.3691ZM123.176 18.3184C123.154 17.4447 122.929 16.7822 122.499 16.3311C122.069 15.8727 121.547 15.6436 120.931 15.6436C120.272 15.6436 119.728 15.8835 119.298 16.3633C118.868 16.8431 118.657 17.4948 118.664 18.3184H123.176Z" fill="black"/>
<defs>
<linearGradient id="paint0_linear" x1="19.5" y1="-9.00177" x2="41.8884" y2="58.7571" gradientUnits="userSpaceOnUse">
<stop stop-color="#FF5400"/>
<stop offset="1" stop-color="#FC0404"/>
</linearGradient>
</defs>
</svg>
